<svg width="24" height="24" viewBox="0 0 24 24" fill="none" xmlns="http://www.w3.org/2000/svg">
<path d="M21.6678 9.62449L21.6397 9.55263L18.9175 2.44809C18.8621 2.30885 18.764 2.19073 18.6373 2.11068C18.5106 2.03198 18.3627 1.99408 18.2137 2.00209C18.0647 2.0101 17.9218 2.06363 17.8042 2.15546C17.6879 2.24992 17.6035 2.37792 17.5626 2.52203L15.7245 8.14568H8.28148L6.44339 2.52203C6.40352 2.37713 6.31898 2.24849 6.20178 2.15442C6.08418 2.06259 5.94124 2.00906 5.79225 2.00105C5.64326 1.99304 5.49541 2.03094 5.36864 2.10963C5.24224 2.19001 5.14426 2.30803 5.0885 2.44705L2.36103 9.54847L2.33396 9.62033C1.94208 10.6443 1.8937 11.7678 2.19614 12.8216C2.49857 13.8755 3.13541 14.8024 4.01064 15.4627L4.02001 15.47L4.045 15.4877L8.19192 18.5932L10.2435 20.1459L11.4932 21.0894C11.6394 21.2004 11.8179 21.2605 12.0014 21.2605C12.185 21.2605 12.3635 21.2004 12.5096 21.0894L13.7593 20.1459L15.8109 18.5932L19.9828 15.4689L19.9933 15.4606C20.8665 14.8002 21.5019 13.8742 21.8038 12.8218C22.1058 11.7694 22.0581 10.6474 21.6678 9.62449Z" fill="white"/>
</svg>
