<svg width="177" height="32" viewBox="0 0 177 32" fill="none" xmlns="http://www.w3.org/2000/svg">
<path d="M173.881 25.2326C173.113 25.2326 172.454 24.9613 171.904 24.4186C171.361 23.8682 171.09 23.2093 171.09 22.4419C171.09 21.6822 171.361 21.031 171.904 20.4884C172.454 19.9458 173.113 19.6744 173.881 19.6744C174.625 19.6744 175.276 19.9458 175.834 20.4884C176.392 21.031 176.671 21.6822 176.671 22.4419C176.671 22.9535 176.54 23.4225 176.276 23.8489C176.02 24.2675 175.683 24.6047 175.264 24.8605C174.846 25.1085 174.385 25.2326 173.881 25.2326Z" fill="white"/>
<path d="M169.096 12.1629L164.561 12.4419C164.484 12.0543 164.317 11.7055 164.061 11.3954C163.806 11.0776 163.468 10.8256 163.05 10.6396C162.639 10.4458 162.147 10.3489 161.573 10.3489C160.806 10.3489 160.158 10.5117 159.631 10.8373C159.104 11.1551 158.841 11.5815 158.841 12.1163C158.841 12.5427 159.011 12.9032 159.352 13.1977C159.693 13.4923 160.279 13.7287 161.108 13.907L164.341 14.5582C166.077 14.9148 167.372 15.4884 168.224 16.2791C169.077 17.0698 169.503 18.1086 169.503 19.3954C169.503 20.566 169.158 21.5931 168.468 22.4768C167.786 23.3605 166.848 24.0504 165.654 24.5466C164.468 25.0349 163.1 25.2791 161.55 25.2791C159.185 25.2791 157.302 24.7869 155.899 23.8024C154.503 22.8101 153.686 21.4613 153.445 19.7559L158.317 19.5001C158.465 20.221 158.821 20.7714 159.387 21.1512C159.953 21.5233 160.678 21.7094 161.561 21.7094C162.43 21.7094 163.127 21.5427 163.654 21.2094C164.189 20.8683 164.461 20.4303 164.468 19.8954C164.461 19.4458 164.271 19.0776 163.899 18.7908C163.527 18.4962 162.953 18.2714 162.178 18.1163L159.085 17.5001C157.341 17.1512 156.042 16.5466 155.189 15.6861C154.344 14.8256 153.922 13.7287 153.922 12.3954C153.922 11.2481 154.232 10.2598 154.852 9.4303C155.48 8.60084 156.36 7.96131 157.492 7.5117C158.631 7.06209 159.965 6.83728 161.492 6.83728C163.748 6.83728 165.523 7.31402 166.817 8.26751C168.12 9.221 168.879 10.5194 169.096 12.1629Z" fill="white"/>
<path d="M141.972 25.2675C140.832 25.2675 139.817 25.0698 138.925 24.6745C138.034 24.2714 137.329 23.6784 136.809 22.8954C136.298 22.1047 136.042 21.1202 136.042 19.9419C136.042 18.9497 136.224 18.1163 136.588 17.4419C136.953 16.7675 137.449 16.2249 138.077 15.814C138.705 15.4032 139.418 15.0931 140.216 14.8838C141.022 14.6745 141.867 14.5272 142.751 14.4419C143.79 14.3334 144.627 14.2326 145.263 14.1396C145.898 14.0388 146.36 13.8915 146.646 13.6977C146.933 13.5039 147.077 13.2171 147.077 12.8373V12.7675C147.077 12.0311 146.844 11.4613 146.379 11.0582C145.922 10.6551 145.27 10.4536 144.425 10.4536C143.534 10.4536 142.825 10.6512 142.298 11.0466C141.77 11.4342 141.422 11.9225 141.251 12.5117L136.67 12.1396C136.902 11.0543 137.36 10.1163 138.042 9.32565C138.724 8.5272 139.604 7.9148 140.681 7.48844C141.767 7.05433 143.022 6.83728 144.449 6.83728C145.441 6.83728 146.391 6.95356 147.298 7.18612C148.212 7.41867 149.022 7.77914 149.728 8.26751C150.441 8.75588 151.003 9.38379 151.414 10.1512C151.825 10.9109 152.03 11.8218 152.03 12.8838V24.9303H147.332V22.4535H147.193C146.906 23.0117 146.522 23.5039 146.042 23.9303C145.561 24.3489 144.984 24.6784 144.309 24.9187C143.635 25.1512 142.856 25.2675 141.972 25.2675ZM143.391 21.8489C144.119 21.8489 144.763 21.7055 145.321 21.4187C145.879 21.1241 146.317 20.7287 146.635 20.2326C146.953 19.7365 147.112 19.1745 147.112 18.5466V16.6512C146.956 16.752 146.743 16.845 146.472 16.9303C146.208 17.0078 145.91 17.0815 145.577 17.1512C145.243 17.2132 144.91 17.2714 144.577 17.3256C144.243 17.3722 143.941 17.4148 143.67 17.4536C143.088 17.5388 142.581 17.6745 142.146 17.8605C141.712 18.0466 141.375 18.2985 141.135 18.6163C140.894 18.9264 140.774 19.314 140.774 19.7791C140.774 20.4536 141.018 20.9691 141.507 21.3256C142.003 21.6745 142.631 21.8489 143.391 21.8489Z" fill="white"/>
<path d="M125.842 32.0001C124.237 32.0001 122.861 31.7791 121.714 31.3373C120.574 30.9032 119.667 30.3101 118.993 29.5582C118.318 28.8063 117.88 27.9613 117.679 27.0233L122.26 26.407C122.4 26.7636 122.621 27.097 122.923 27.407C123.225 27.7171 123.625 27.9652 124.121 28.1512C124.625 28.345 125.237 28.4419 125.958 28.4419C127.036 28.4419 127.923 28.1784 128.621 27.6512C129.326 27.1318 129.679 26.2598 129.679 25.0349V21.7675H129.47C129.253 22.2636 128.927 22.7326 128.493 23.1745C128.059 23.6163 127.501 23.9768 126.818 24.2559C126.136 24.5349 125.322 24.6745 124.377 24.6745C123.036 24.6745 121.815 24.3644 120.714 23.7442C119.621 23.1163 118.749 22.159 118.098 20.8722C117.454 19.5776 117.132 17.9419 117.132 15.9652C117.132 13.9419 117.462 12.252 118.121 10.8954C118.78 9.53883 119.656 8.52332 120.749 7.84891C121.849 7.17449 123.055 6.83728 124.365 6.83728C125.365 6.83728 126.202 7.00782 126.877 7.34891C127.551 7.68224 128.094 8.10085 128.505 8.60472C128.923 9.10084 129.245 9.58922 129.47 10.0698H129.656V7.06984H134.574V25.1047C134.574 26.6241 134.202 27.8954 133.458 28.9187C132.714 29.9419 131.683 30.7094 130.365 31.221C129.055 31.7404 127.547 32.0001 125.842 32.0001ZM125.946 20.9536C126.745 20.9536 127.419 20.7559 127.97 20.3605C128.528 19.9574 128.954 19.3838 129.249 18.6396C129.551 17.8877 129.702 16.9884 129.702 15.9419C129.702 14.8954 129.555 13.9884 129.26 13.221C128.966 12.4458 128.539 11.845 127.981 11.4187C127.423 10.9923 126.745 10.7791 125.946 10.7791C125.132 10.7791 124.446 11.0001 123.888 11.4419C123.33 11.876 122.908 12.4807 122.621 13.2559C122.334 14.0311 122.191 14.9264 122.191 15.9419C122.191 16.9729 122.334 17.8644 122.621 18.6163C122.915 19.3605 123.338 19.938 123.888 20.3489C124.446 20.752 125.132 20.9536 125.946 20.9536Z" fill="white"/>
<path d="M105.531 25.2675C104.392 25.2675 103.376 25.0698 102.485 24.6745C101.593 24.2714 100.888 23.6784 100.369 22.8954C99.8569 22.1047 99.6011 21.1202 99.6011 19.9419C99.6011 18.9497 99.7832 18.1163 100.148 17.4419C100.512 16.7675 101.008 16.2249 101.636 15.814C102.264 15.4032 102.977 15.0931 103.775 14.8838C104.582 14.6745 105.427 14.5272 106.31 14.4419C107.349 14.3334 108.186 14.2326 108.822 14.1396C109.458 14.0388 109.919 13.8915 110.206 13.6977C110.493 13.5039 110.636 13.2171 110.636 12.8373V12.7675C110.636 12.0311 110.403 11.4613 109.938 11.0582C109.481 10.6551 108.83 10.4536 107.985 10.4536C107.093 10.4536 106.384 10.6512 105.857 11.0466C105.33 11.4342 104.981 11.9225 104.81 12.5117L100.229 12.1396C100.462 11.0543 100.919 10.1163 101.601 9.32565C102.283 8.5272 103.163 7.9148 104.241 7.48844C105.326 7.05433 106.582 6.83728 108.008 6.83728C109 6.83728 109.95 6.95356 110.857 7.18612C111.772 7.41867 112.582 7.77914 113.287 8.26751C114 8.75588 114.562 9.38379 114.973 10.1512C115.384 10.9109 115.589 11.8218 115.589 12.8838V24.9303H110.892V22.4535H110.752C110.465 23.0117 110.082 23.5039 109.601 23.9303C109.12 24.3489 108.543 24.6784 107.869 24.9187C107.194 25.1512 106.415 25.2675 105.531 25.2675ZM106.95 21.8489C107.679 21.8489 108.322 21.7055 108.88 21.4187C109.438 21.1241 109.876 20.7287 110.194 20.2326C110.512 19.7365 110.671 19.1745 110.671 18.5466V16.6512C110.516 16.752 110.303 16.845 110.031 16.9303C109.768 17.0078 109.469 17.0815 109.136 17.1512C108.803 17.2132 108.469 17.2714 108.136 17.3256C107.803 17.3722 107.5 17.4148 107.229 17.4536C106.648 17.5388 106.14 17.6745 105.706 17.8605C105.272 18.0466 104.934 18.2985 104.694 18.6163C104.454 18.9264 104.334 19.314 104.334 19.7791C104.334 20.4536 104.578 20.9691 105.066 21.3256C105.562 21.6745 106.19 21.8489 106.95 21.8489Z" fill="white"/>
<path d="M80.5203 24.9304V1.11646H90.0551C91.8071 1.11646 93.2683 1.37614 94.4389 1.89552C95.6094 2.4149 96.4892 3.13583 97.0784 4.05831C97.6675 4.97304 97.9621 6.02731 97.9621 7.2211C97.9621 8.15134 97.7761 8.96916 97.404 9.67459C97.0319 10.3723 96.5203 10.9459 95.8691 11.3955C95.2257 11.8374 94.4892 12.1513 93.6598 12.3374V12.5699C94.5668 12.6087 95.4156 12.8645 96.2063 13.3374C97.0048 13.8102 97.652 14.473 98.1482 15.3257C98.6443 16.1707 98.8923 17.1785 98.8923 18.349C98.8923 19.6126 98.5784 20.7405 97.9505 21.7327C97.3303 22.7172 96.4117 23.4963 95.1947 24.0699C93.9776 24.6436 92.4776 24.9304 90.6947 24.9304H80.5203ZM85.5551 20.8141H89.6598C91.0629 20.8141 92.0861 20.5467 92.7296 20.0118C93.373 19.4692 93.6947 18.7482 93.6947 17.849C93.6947 17.1901 93.5358 16.6087 93.2179 16.1048C92.9001 15.6009 92.4466 15.2056 91.8575 14.9188C91.2761 14.632 90.5823 14.4885 89.7761 14.4885H85.5551V20.8141ZM85.5551 11.0816H89.2877C89.9776 11.0816 90.59 10.9614 91.1249 10.7211C91.6675 10.473 92.0939 10.1242 92.404 9.67459C92.7218 9.22498 92.8807 8.68622 92.8807 8.05831C92.8807 7.19785 92.5745 6.50405 91.9621 5.97692C91.3575 5.44979 90.497 5.18622 89.3807 5.18622H85.5551V11.0816Z" fill="white"/>
<path d="M68.6663 24.9304V7.0699H73.4686V10.1862H73.6546C73.9802 9.07765 74.5267 8.24044 75.2942 7.67455C76.0616 7.10091 76.9453 6.81409 77.9453 6.81409C78.1934 6.81409 78.4608 6.82959 78.7476 6.8606C79.0345 6.89161 79.2864 6.93424 79.5035 6.98851V11.3839C79.2709 11.3141 78.9492 11.2521 78.5383 11.1978C78.1275 11.1435 77.7515 11.1164 77.4104 11.1164C76.6818 11.1164 76.0306 11.2753 75.457 11.5932C74.8911 11.9032 74.4415 12.3373 74.1081 12.8955C73.7825 13.4536 73.6197 14.097 73.6197 14.8257V24.9304H68.6663Z" fill="white"/>
<path d="M56.4024 25.2675C55.2629 25.2675 54.2474 25.0698 53.3559 24.6745C52.4644 24.2714 51.759 23.6784 51.2396 22.8954C50.728 22.1047 50.4722 21.1202 50.4722 19.9419C50.4722 18.9497 50.6543 18.1163 51.0187 17.4419C51.383 16.7675 51.8791 16.2249 52.507 15.814C53.135 15.4032 53.8481 15.0931 54.6466 14.8838C55.4528 14.6745 56.2977 14.5272 57.1815 14.4419C58.2202 14.3334 59.0574 14.2326 59.6931 14.1396C60.3288 14.0388 60.79 13.8915 61.0768 13.6977C61.3636 13.5039 61.507 13.2171 61.507 12.8373V12.7675C61.507 12.0311 61.2745 11.4613 60.8094 11.0582C60.352 10.6551 59.7008 10.4536 58.8559 10.4536C57.9644 10.4536 57.2551 10.6512 56.728 11.0466C56.2008 11.4342 55.852 11.9225 55.6815 12.5117L51.1001 12.1396C51.3326 11.0543 51.79 10.1163 52.4722 9.32565C53.1543 8.5272 54.0342 7.9148 55.1117 7.48844C56.197 7.05433 57.4528 6.83728 58.8791 6.83728C59.8714 6.83728 60.821 6.95356 61.728 7.18612C62.6427 7.41867 63.4528 7.77914 64.1582 8.26751C64.8714 8.75588 65.4334 9.38379 65.8443 10.1512C66.2551 10.9109 66.4605 11.8218 66.4605 12.8838V24.9303H61.7629V22.4535H61.6233C61.3365 23.0117 60.9528 23.5039 60.4722 23.9303C59.9915 24.3489 59.414 24.6784 58.7396 24.9187C58.0652 25.1512 57.2861 25.2675 56.4024 25.2675ZM57.821 21.8489C58.5497 21.8489 59.1931 21.7055 59.7512 21.4187C60.3094 21.1241 60.7474 20.7287 61.0652 20.2326C61.383 19.7365 61.5419 19.1745 61.5419 18.5466V16.6512C61.3869 16.752 61.1737 16.845 60.9024 16.9303C60.6388 17.0078 60.3404 17.0815 60.007 17.1512C59.6737 17.2132 59.3404 17.2714 59.007 17.3256C58.6737 17.3722 58.3714 17.4148 58.1001 17.4536C57.5187 17.5388 57.0109 17.6745 56.5768 17.8605C56.1427 18.0466 55.8055 18.2985 55.5652 18.6163C55.3249 18.9264 55.2047 19.314 55.2047 19.7791C55.2047 20.4536 55.4489 20.9691 55.9373 21.3256C56.4334 21.6745 57.0613 21.8489 57.821 21.8489Z" fill="white"/>
<path d="M50.5599 7.06977V10.7907H39.5366V7.06977H50.5599ZM42.0599 24.9302V5.77907C42.0599 4.48449 42.3118 3.41085 42.8157 2.55814C43.3273 1.70543 44.025 1.06589 44.9087 0.639535C45.7924 0.213178 46.7963 0 47.9203 0C48.68 0 49.3738 0.05814 50.0017 0.17442C50.6374 0.290699 51.1103 0.395349 51.4203 0.488373L50.5366 4.2093C50.3428 4.14729 50.1025 4.08915 49.8157 4.03488C49.5366 3.98062 49.2498 3.95349 48.9552 3.95349C48.2265 3.95349 47.7188 4.12403 47.432 4.46512C47.1451 4.79845 47.0017 5.26744 47.0017 5.87209V24.9302H42.0599Z" fill="white"/>
<path d="M28.6912 25.2675C27.5517 25.2675 26.5362 25.0698 25.6447 24.6745C24.7532 24.2714 24.0478 23.6784 23.5284 22.8954C23.0168 22.1047 22.761 21.1202 22.761 19.9419C22.761 18.9497 22.9432 18.1163 23.3075 17.4419C23.6718 16.7675 24.168 16.2249 24.7959 15.814C25.4238 15.4032 26.137 15.0931 26.9354 14.8838C27.7416 14.6745 28.5866 14.5272 29.4703 14.4419C30.509 14.3334 31.3463 14.2326 31.9819 14.1396C32.6176 14.0388 33.0788 13.8915 33.3656 13.6977C33.6525 13.5039 33.7959 13.2171 33.7959 12.8373V12.7675C33.7959 12.0311 33.5633 11.4613 33.0982 11.0582C32.6408 10.6551 31.9897 10.4536 31.1447 10.4536C30.2532 10.4536 29.5439 10.6512 29.0168 11.0466C28.4897 11.4342 28.1408 11.9225 27.9703 12.5117L23.3889 12.1396C23.6214 11.0543 24.0788 10.1163 24.761 9.32565C25.4432 8.5272 26.323 7.9148 27.4005 7.48844C28.4858 7.05433 29.7416 6.83728 31.168 6.83728C32.1602 6.83728 33.1098 6.95356 34.0168 7.18612C34.9315 7.41867 35.7416 7.77914 36.447 8.26751C37.1602 8.75588 37.7222 9.38379 38.1331 10.1512C38.5439 10.9109 38.7493 11.8218 38.7493 12.8838V24.9303H34.0517V22.4535H33.9121C33.6253 23.0117 33.2416 23.5039 32.761 23.9303C32.2804 24.3489 31.7028 24.6784 31.0284 24.9187C30.354 25.1512 29.5749 25.2675 28.6912 25.2675ZM30.1098 21.8489C30.8385 21.8489 31.4819 21.7055 32.04 21.4187C32.5982 21.1241 33.0362 20.7287 33.354 20.2326C33.6718 19.7365 33.8307 19.1745 33.8307 18.5466V16.6512C33.6757 16.752 33.4625 16.845 33.1912 16.9303C32.9276 17.0078 32.6292 17.0815 32.2959 17.1512C31.9625 17.2132 31.6292 17.2714 31.2959 17.3256C30.9625 17.3722 30.6602 17.4148 30.3889 17.4536C29.8075 17.5388 29.2997 17.6745 28.8656 17.8605C28.4315 18.0466 28.0943 18.2985 27.854 18.6163C27.6137 18.9264 27.4935 19.314 27.4935 19.7791C27.4935 20.4536 27.7377 20.9691 28.2261 21.3256C28.7222 21.6745 29.3501 21.8489 30.1098 21.8489Z" fill="white"/>
<path d="M16.2093 8.81402C16.0465 8.24813 15.8178 7.74813 15.5232 7.31402C15.2287 6.87216 14.8682 6.50007 14.4419 6.19775C14.0232 5.88767 13.5426 5.65123 13 5.48844C12.4651 5.32565 11.8721 5.24426 11.2209 5.24426C10.0039 5.24426 8.9341 5.54658 8.01162 6.15123C7.0969 6.75589 6.38372 7.63573 5.87209 8.79077C5.36046 9.93805 5.10465 11.3412 5.10465 13.0001C5.10465 14.659 5.35659 16.0698 5.86046 17.2326C6.36434 18.3954 7.07751 19.283 7.99999 19.8954C8.92247 20.5001 10.0116 20.8024 11.2674 20.8024C12.407 20.8024 13.3798 20.6008 14.186 20.1977C15 19.7869 15.6201 19.2094 16.0465 18.4652C16.4806 17.721 16.6977 16.8411 16.6977 15.8256L17.7209 15.9768H11.5814V12.1861H21.5465V15.1861C21.5465 17.2791 21.1046 19.0776 20.2209 20.5815C19.3372 22.0776 18.1201 23.2326 16.5698 24.0466C15.0194 24.8528 13.2442 25.2559 11.2442 25.2559C9.01162 25.2559 7.05038 24.7636 5.36046 23.7791C3.67054 22.7869 2.35271 21.3799 1.40698 19.5582C0.468992 17.7287 0 15.5582 0 13.0466C0 11.1163 0.27907 9.39542 0.837209 7.88379C1.4031 6.36441 2.1938 5.07759 3.2093 4.02333C4.2248 2.96907 5.40697 2.16674 6.75581 1.61635C8.10465 1.06597 9.56589 0.790771 11.1395 0.790771C12.4884 0.790771 13.7442 0.988446 14.907 1.38379C16.0698 1.77139 17.1008 2.32178 18 3.03496C18.907 3.74813 19.6473 4.59697 20.2209 5.58147C20.7946 6.55821 21.1628 7.63573 21.3256 8.81402H16.2093Z" fill="white"/>
</svg>
